<svg xmlns="http://www.w3.org/2000/svg" viewBox="0 0 900 640"><rect width="900" height="640" fill="#f7e4e4"/><circle cx="450" cy="320" r="300" fill="#fbeeee"/><circle cx="190" cy="417" r="14" fill="#d46a6a" stroke="#b24d4d" stroke-width="1.5"/><circle cx="190" cy="417" r="6" fill="#e89b9b" opacity="0.85"/><circle cx="690" cy="516" r="14" fill="#d46a6a" stroke="#b24d4d" stroke-width="1.5"/><circle cx="690" cy="516" r="6" fill="#e89b9b" opacity="0.85"/><circle cx="508" cy="470" r="14" fill="#d46a6a" stroke="#b24d4d" stroke-width="1.5"/><circle cx="508" cy="470" r="6" fill="#e89b9b" opacity="0.85"/><circle cx="269" cy="543" r="14" fill="#d46a6a" stroke="#b24d4d" stroke-width="1.5"/><circle cx="269" cy="543" r="6" fill="#e89b9b" opacity="0.85"/><circle cx="607" cy="297" r="14" fill="#d46a6a" stroke="#b24d4d" stroke-width="1.5"/><circle cx="607" cy="297" r="6" fill="#e89b9b" opacity="0.85"/><circle cx="651" cy="423" r="11" fill="#d46a6a" stroke="#b24d4d" stroke-width="1.5"/><circle cx="651" cy="423" r="5" fill="#e89b9b" opacity="0.85"/><circle cx="702" cy="490" r="13" fill="#d46a6a" stroke="#b24d4d" stroke-width="1.5"/><circle cx="702" cy="490" r="6" fill="#e89b9b" opacity="0.85"/><circle cx="673" cy="392" r="11" fill="#d46a6a" stroke="#b24d4d" stroke-width="1.5"/><circle cx="673" cy="392" r="5" fill="#e89b9b" opacity="0.85"/><circle cx="190" cy="481" r="12" fill="#d46a6a" stroke="#b24d4d" stroke-width="1.5"/><circle cx="190" cy="481" r="5" fill="#e89b9b" opacity="0.85"/><circle cx="450" cy="278" r="11" fill="#d46a6a" stroke="#b24d4d" stroke-width="1.5"/><circle cx="450" cy="278" r="5" fill="#e89b9b" opacity="0.85"/><circle cx="624" cy="508" r="13" fill="#d46a6a" stroke="#b24d4d" stroke-width="1.5"/><circle cx="624" cy="508" r="6" fill="#e89b9b" opacity="0.85"/><circle cx="511" cy="352" r="12" fill="#d46a6a" stroke="#b24d4d" stroke-width="1.5"/><circle cx="511" cy="352" r="5" fill="#e89b9b" opacity="0.85"/><circle cx="307" cy="473" r="15" fill="#d46a6a" stroke="#b24d4d" stroke-width="1.5"/><circle cx="307" cy="473" r="7" fill="#e89b9b" opacity="0.85"/><circle cx="580" cy="187" r="14" fill="#d46a6a" stroke="#b24d4d" stroke-width="1.5"/><circle cx="580" cy="187" r="6" fill="#e89b9b" opacity="0.85"/><circle cx="395" cy="455" r="13" fill="#d46a6a" stroke="#b24d4d" stroke-width="1.5"/><circle cx="395" cy="455" r="6" fill="#e89b9b" opacity="0.85"/><circle cx="681" cy="187" r="13" fill="#d46a6a" stroke="#b24d4d" stroke-width="1.5"/><circle cx="681" cy="187" r="6" fill="#e89b9b" opacity="0.85"/><circle cx="474" cy="400" r="15" fill="#d46a6a" stroke="#b24d4d" stroke-width="1.5"/><circle cx="474" cy="400" r="7" fill="#e89b9b" opacity="0.85"/><circle cx="299" cy="132" r="13" fill="#d46a6a" stroke="#b24d4d" stroke-width="1.5"/><circle cx="299" cy="132" r="6" fill="#e89b9b" opacity="0.85"/><circle cx="539" cy="166" r="12" fill="#d46a6a" stroke="#b24d4d" stroke-width="1.5"/><circle cx="539" cy="166" r="6" fill="#e89b9b" opacity="0.85"/><circle cx="538" cy="467" r="14" fill="#d46a6a" stroke="#b24d4d" stroke-width="1.5"/><circle cx="538" cy="467" r="6" fill="#e89b9b" opacity="0.85"/><circle cx="585" cy="347" r="14" fill="#d46a6a" stroke="#b24d4d" stroke-width="1.5"/><circle cx="585" cy="347" r="6" fill="#e89b9b" opacity="0.85"/><circle cx="267" cy="470" r="13" fill="#d46a6a" stroke="#b24d4d" stroke-width="1.5"/><circle cx="267" cy="470" r="6" fill="#e89b9b" opacity="0.85"/><circle cx="429" cy="173" r="12" fill="#d46a6a" stroke="#b24d4d" stroke-width="1.5"/><circle cx="429" cy="173" r="6" fill="#e89b9b" opacity="0.85"/><circle cx="689" cy="324" r="15" fill="#d46a6a" stroke="#b24d4d" stroke-width="1.5"/><circle cx="689" cy="324" r="7" fill="#e89b9b" opacity="0.85"/><circle cx="503" cy="495" r="15" fill="#d46a6a" stroke="#b24d4d" stroke-width="1.5"/><circle cx="503" cy="495" r="7" fill="#e89b9b" opacity="0.85"/><circle cx="210" cy="197" r="14" fill="#d46a6a" stroke="#b24d4d" stroke-width="1.5"/><circle cx="210" cy="197" r="6" fill="#e89b9b" opacity="0.85"/><circle cx="658" cy="96" r="14" fill="#d46a6a" stroke="#b24d4d" stroke-width="1.5"/><circle cx="658" cy="96" r="6" fill="#e89b9b" opacity="0.85"/><circle cx="517" cy="185" r="15" fill="#d46a6a" stroke="#b24d4d" stroke-width="1.5"/><circle cx="517" cy="185" r="7" fill="#e89b9b" opacity="0.85"/><circle cx="339" cy="175" r="13" fill="#d46a6a" stroke="#b24d4d" stroke-width="1.5"/><circle cx="339" cy="175" r="6" fill="#e89b9b" opacity="0.85"/><circle cx="414" cy="547" r="13" fill="#d46a6a" stroke="#b24d4d" stroke-width="1.5"/><circle cx="414" cy="547" r="6" fill="#e89b9b" opacity="0.85"/><circle cx="206" cy="542" r="13" fill="#d46a6a" stroke="#b24d4d" stroke-width="1.5"/><circle cx="206" cy="542" r="6" fill="#e89b9b" opacity="0.85"/><circle cx="540" cy="405" r="15" fill="#d46a6a" stroke="#b24d4d" stroke-width="1.5"/><circle cx="540" cy="405" r="7" fill="#e89b9b" opacity="0.85"/><circle cx="376" cy="522" r="13" fill="#d46a6a" stroke="#b24d4d" stroke-width="1.5"/><circle cx="376" cy="522" r="6" fill="#e89b9b" opacity="0.85"/><circle cx="398" cy="543" r="11" fill="#d46a6a" stroke="#b24d4d" stroke-width="1.5"/><circle cx="398" cy="543" r="5" fill="#e89b9b" opacity="0.85"/><circle cx="572" cy="236" r="15" fill="#d46a6a" stroke="#b24d4d" stroke-width="1.5"/><circle cx="572" cy="236" r="7" fill="#e89b9b" opacity="0.85"/><circle cx="414" cy="288" r="13" fill="#d46a6a" stroke="#b24d4d" stroke-width="1.5"/><circle cx="414" cy="288" r="6" fill="#e89b9b" opacity="0.85"/><circle cx="683" cy="311" r="13" fill="#d46a6a" stroke="#b24d4d" stroke-width="1.5"/><circle cx="683" cy="311" r="6" fill="#e89b9b" opacity="0.85"/><circle cx="568" cy="186" r="13" fill="#d46a6a" stroke="#b24d4d" stroke-width="1.5"/><circle cx="568" cy="186" r="6" fill="#e89b9b" opacity="0.85"/><circle cx="254" cy="525" r="11" fill="#d46a6a" stroke="#b24d4d" stroke-width="1.5"/><circle cx="254" cy="525" r="5" fill="#e89b9b" opacity="0.85"/><circle cx="588" cy="224" r="14" fill="#d46a6a" stroke="#b24d4d" stroke-width="1.5"/><circle cx="588" cy="224" r="6" fill="#e89b9b" opacity="0.85"/><circle cx="285" cy="352" r="11" fill="#d46a6a" stroke="#b24d4d" stroke-width="1.5"/><circle cx="285" cy="352" r="5" fill="#e89b9b" opacity="0.85"/><circle cx="391" cy="251" r="12" fill="#d46a6a" stroke="#b24d4d" stroke-width="1.5"/><circle cx="391" cy="251" r="5" fill="#e89b9b" opacity="0.85"/><circle cx="290" cy="145" r="12" fill="#d46a6a" stroke="#b24d4d" stroke-width="1.5"/><circle cx="290" cy="145" r="6" fill="#e89b9b" opacity="0.85"/><circle cx="257" cy="334" r="13" fill="#d46a6a" stroke="#b24d4d" stroke-width="1.5"/><circle cx="257" cy="334" r="6" fill="#e89b9b" opacity="0.85"/><circle cx="686" cy="484" r="11" fill="#d46a6a" stroke="#b24d4d" stroke-width="1.5"/><circle cx="686" cy="484" r="5" fill="#e89b9b" opacity="0.85"/><circle cx="211" cy="318" r="15" fill="#d46a6a" stroke="#b24d4d" stroke-width="1.5"/><circle cx="211" cy="318" r="7" fill="#e89b9b" opacity="0.85"/><circle cx="519" cy="547" r="14" fill="#d46a6a" stroke="#b24d4d" stroke-width="1.5"/><circle cx="519" cy="547" r="6" fill="#e89b9b" opacity="0.85"/><circle cx="409" cy="196" r="15" fill="#d46a6a" stroke="#b24d4d" stroke-width="1.5"/><circle cx="409" cy="196" r="7" fill="#e89b9b" opacity="0.85"/><circle cx="597" cy="234" r="14" fill="#d46a6a" stroke="#b24d4d" stroke-width="1.5"/><circle cx="597" cy="234" r="6" fill="#e89b9b" opacity="0.85"/><circle cx="369" cy="218" r="12" fill="#d46a6a" stroke="#b24d4d" stroke-width="1.5"/><circle cx="369" cy="218" r="6" fill="#e89b9b" opacity="0.85"/><circle cx="207" cy="317" r="14" fill="#d46a6a" stroke="#b24d4d" stroke-width="1.5"/><circle cx="207" cy="317" r="6" fill="#e89b9b" opacity="0.85"/><circle cx="500" cy="159" r="12" fill="#d46a6a" stroke="#b24d4d" stroke-width="1.5"/><circle cx="500" cy="159" r="5" fill="#e89b9b" opacity="0.85"/><circle cx="527" cy="304" r="11" fill="#d46a6a" stroke="#b24d4d" stroke-width="1.5"/><circle cx="527" cy="304" r="5" fill="#e89b9b" opacity="0.85"/><circle cx="419" cy="192" r="12" fill="#d46a6a" stroke="#b24d4d" stroke-width="1.5"/><circle cx="419" cy="192" r="5" fill="#e89b9b" opacity="0.85"/><circle cx="222" cy="385" r="12" fill="#d46a6a" stroke="#b24d4d" stroke-width="1.5"/><circle cx="222" cy="385" r="6" fill="#e89b9b" opacity="0.85"/><circle cx="565" cy="340" r="14" fill="#d46a6a" stroke="#b24d4d" stroke-width="1.5"/><circle cx="565" cy="340" r="6" fill="#e89b9b" opacity="0.85"/><circle cx="355" cy="244" r="14" fill="#d46a6a" stroke="#b24d4d" stroke-width="1.5"/><circle cx="355" cy="244" r="6" fill="#e89b9b" opacity="0.85"/><circle cx="457" cy="181" r="11" fill="#d46a6a" stroke="#b24d4d" stroke-width="1.5"/><circle cx="457" cy="181" r="5" fill="#e89b9b" opacity="0.85"/><circle cx="670" cy="435" r="12" fill="#d46a6a" stroke="#b24d4d" stroke-width="1.5"/><circle cx="670" cy="435" r="5" fill="#e89b9b" opacity="0.85"/><circle cx="583" cy="173" r="15" fill="#d46a6a" stroke="#b24d4d" stroke-width="1.5"/><circle cx="583" cy="173" r="7" fill="#e89b9b" opacity="0.85"/><circle cx="473" cy="495" r="13" fill="#d46a6a" stroke="#b24d4d" stroke-width="1.5"/><circle cx="473" cy="495" r="6" fill="#e89b9b" opacity="0.85"/><circle cx="248" cy="307" r="14" fill="#d46a6a" stroke="#b24d4d" stroke-width="1.5"/><circle cx="248" cy="307" r="6" fill="#e89b9b" opacity="0.85"/><circle cx="624" cy="465" r="12" fill="#d46a6a" stroke="#b24d4d" stroke-width="1.5"/><circle cx="624" cy="465" r="5" fill="#e89b9b" opacity="0.85"/><circle cx="289" cy="148" r="13" fill="#d46a6a" stroke="#b24d4d" stroke-width="1.5"/><circle cx="289" cy="148" r="6" fill="#e89b9b" opacity="0.85"/><circle cx="609" cy="379" r="14" fill="#d46a6a" stroke="#b24d4d" stroke-width="1.5"/><circle cx="609" cy="379" r="6" fill="#e89b9b" opacity="0.85"/><circle cx="195" cy="259" r="12" fill="#d46a6a" stroke="#b24d4d" stroke-width="1.5"/><circle cx="195" cy="259" r="5" fill="#e89b9b" opacity="0.85"/><circle cx="560" cy="422" r="15" fill="#d46a6a" stroke="#b24d4d" stroke-width="1.5"/><circle cx="560" cy="422" r="7" fill="#e89b9b" opacity="0.85"/><circle cx="257" cy="473" r="13" fill="#d46a6a" stroke="#b24d4d" stroke-width="1.5"/><circle cx="257" cy="473" r="6" fill="#e89b9b" opacity="0.85"/><circle cx="225" cy="440" r="15" fill="#d46a6a" stroke="#b24d4d" stroke-width="1.5"/><circle cx="225" cy="440" r="7" fill="#e89b9b" opacity="0.85"/><circle cx="548" cy="249" r="13" fill="#d46a6a" stroke="#b24d4d" stroke-width="1.5"/><circle cx="548" cy="249" r="6" fill="#e89b9b" opacity="0.85"/><circle cx="449" cy="272" r="14" fill="#d46a6a" stroke="#b24d4d" stroke-width="1.5"/><circle cx="449" cy="272" r="6" fill="#e89b9b" opacity="0.85"/><circle cx="443" cy="228" r="12" fill="#d46a6a" stroke="#b24d4d" stroke-width="1.5"/><circle cx="443" cy="228" r="5" fill="#e89b9b" opacity="0.85"/><circle cx="403" cy="175" r="14" fill="#d46a6a" stroke="#b24d4d" stroke-width="1.5"/><circle cx="403" cy="175" r="6" fill="#e89b9b" opacity="0.85"/><circle cx="319" cy="328" r="14" fill="#d46a6a" stroke="#b24d4d" stroke-width="1.5"/><circle cx="319" cy="328" r="6" fill="#e89b9b" opacity="0.85"/><circle cx="202" cy="480" r="12" fill="#d46a6a" stroke="#b24d4d" stroke-width="1.5"/><circle cx="202" cy="480" r="5" fill="#e89b9b" opacity="0.85"/><circle cx="375" cy="403" r="14" fill="#d46a6a" stroke="#b24d4d" stroke-width="1.5"/><circle cx="375" cy="403" r="7" fill="#e89b9b" opacity="0.85"/><circle cx="499" cy="511" r="12" fill="#d46a6a" stroke="#b24d4d" stroke-width="1.5"/><circle cx="499" cy="511" r="5" fill="#e89b9b" opacity="0.85"/><circle cx="487" cy="123" r="14" fill="#d46a6a" stroke="#b24d4d" stroke-width="1.5"/><circle cx="487" cy="123" r="6" fill="#e89b9b" opacity="0.85"/><circle cx="634" cy="486" r="14" fill="#d46a6a" stroke="#b24d4d" stroke-width="1.5"/><circle cx="634" cy="486" r="6" fill="#e89b9b" opacity="0.85"/><circle cx="605" cy="138" r="14" fill="#d46a6a" stroke="#b24d4d" stroke-width="1.5"/><circle cx="605" cy="138" r="6" fill="#e89b9b" opacity="0.85"/><circle cx="429" cy="420" r="11" fill="#d46a6a" stroke="#b24d4d" stroke-width="1.5"/><circle cx="429" cy="420" r="5" fill="#e89b9b" opacity="0.85"/><circle cx="443" cy="434" r="14" fill="#d46a6a" stroke="#b24d4d" stroke-width="1.5"/><circle cx="443" cy="434" r="6" fill="#e89b9b" opacity="0.85"/><circle cx="704" cy="549" r="12" fill="#d46a6a" stroke="#b24d4d" stroke-width="1.5"/><circle cx="704" cy="549" r="5" fill="#e89b9b" opacity="0.85"/><circle cx="197" cy="94" r="11" fill="#d46a6a" stroke="#b24d4d" stroke-width="1.5"/><circle cx="197" cy="94" r="5" fill="#e89b9b" opacity="0.85"/><circle cx="218" cy="299" r="12" fill="#d46a6a" stroke="#b24d4d" stroke-width="1.5"/><circle cx="218" cy="299" r="5" fill="#e89b9b" opacity="0.85"/><circle cx="414" cy="491" r="14" fill="#d46a6a" stroke="#b24d4d" stroke-width="1.5"/><circle cx="414" cy="491" r="6" fill="#e89b9b" opacity="0.85"/><circle cx="538" cy="492" r="12" fill="#d46a6a" stroke="#b24d4d" stroke-width="1.5"/><circle cx="538" cy="492" r="5" fill="#e89b9b" opacity="0.85"/><circle cx="592" cy="195" r="11" fill="#d46a6a" stroke="#b24d4d" stroke-width="1.5"/><circle cx="592" cy="195" r="5" fill="#e89b9b" opacity="0.85"/><circle cx="675" cy="175" r="14" fill="#d46a6a" stroke="#b24d4d" stroke-width="1.5"/><circle cx="675" cy="175" r="6" fill="#e89b9b" opacity="0.85"/><circle cx="594" cy="115" r="11" fill="#d46a6a" stroke="#b24d4d" stroke-width="1.5"/><circle cx="594" cy="115" r="5" fill="#e89b9b" opacity="0.85"/><circle cx="387" cy="236" r="11" fill="#d46a6a" stroke="#b24d4d" stroke-width="1.5"/><circle cx="387" cy="236" r="5" fill="#e89b9b" opacity="0.85"/><circle cx="450" cy="549" r="14" fill="#d46a6a" stroke="#b24d4d" stroke-width="1.5"/><circle cx="450" cy="549" r="6" fill="#e89b9b" opacity="0.85"/><circle cx="242" cy="178" r="13" fill="#d46a6a" stroke="#b24d4d" stroke-width="1.5"/><circle cx="242" cy="178" r="6" fill="#e89b9b" opacity="0.85"/><circle cx="537" cy="330" r="12" fill="#d46a6a" stroke="#b24d4d" stroke-width="1.5"/><circle cx="537" cy="330" r="5" fill="#e89b9b" opacity="0.85"/><circle cx="447" cy="450" r="12" fill="#d46a6a" stroke="#b24d4d" stroke-width="1.5"/><circle cx="447" cy="450" r="5" fill="#e89b9b" opacity="0.85"/><path d="M 266 206 Q 300 178 334 206 Q 300 198 266 206 Z" transform="rotate(-30 300 200)" fill="#c25252" stroke="#8f3a3a" stroke-width="1.5"/><path d="M 486 166 Q 520 138 554 166 Q 520 158 486 166 Z" transform="rotate(15 520 160)" fill="#c25252" stroke="#8f3a3a" stroke-width="1.5"/><path d="M 586 306 Q 620 278 654 306 Q 620 298 586 306 Z" transform="rotate(40 620 300)" fill="#c25252" stroke="#8f3a3a" stroke-width="1.5"/><path d="M 346 426 Q 380 398 414 426 Q 380 418 346 426 Z" transform="rotate(10 380 420)" fill="#c25252" stroke="#8f3a3a" stroke-width="1.5"/><path d="M 216 356 Q 250 328 284 356 Q 250 348 216 356 Z" transform="rotate(65 250 350)" fill="#c25252" stroke="#8f3a3a" stroke-width="1.5"/><path d="M 526 476 Q 560 448 594 476 Q 560 468 526 476 Z" transform="rotate(-45 560 470)" fill="#c25252" stroke="#8f3a3a" stroke-width="1.5"/><path d="M 416 546 Q 450 518 484 546 Q 450 538 416 546 Z" transform="rotate(25 450 540)" fill="#c25252" stroke="#8f3a3a" stroke-width="1.5"/><path d="M 626 436 Q 660 408 694 436 Q 660 428 626 436 Z" transform="rotate(-12 660 430)" fill="#c25252" stroke="#8f3a3a" stroke-width="1.5"/><path d="M 166 506 Q 200 478 234 506 Q 200 498 166 506 Z" transform="rotate(35 200 500)" fill="#c25252" stroke="#8f3a3a" stroke-width="1.5"/><circle cx="700" cy="200" r="13" fill="#d46a6a"/><circle cx="700" cy="200" r="5" fill="#b24d4d"/></svg>